<svg width="75" height="75" viewBox="0 0 75 75" fill="none" xmlns="http://www.w3.org/2000/svg">
<circle cx="37.5" cy="37.5" r="37.5" fill="#EC2020"/>
<path fill-rule="evenodd" clip-rule="evenodd" d="M54.8256 63H20.1743V60.3682C20.1743 58.9207 21.6788 57.7365 23.5178 57.7365H29.4857V51.5999H15.9206C13.7642 51.5999 12 49.8618 12 47.7374V21.1657C12 19.0413 13.7642 17.3032 15.9206 17.3032H30.4098V20.533H15.8223C15.5232 20.533 15.2785 20.7741 15.2785 21.0687V45.0937H59.7213V21.0688C59.7213 20.7741 59.4766 20.5331 59.1776 20.5331H58.0543V18.2112L56.3063 17.5483C56.2771 17.4661 56.2465 17.3844 56.2149 17.3033H59.0793C61.2357 17.3033 63 19.0413 63 21.1658V47.7375C63 49.8619 61.2357 51.6 59.0793 51.6H45.5142V57.7366H51.4821C53.3211 57.7366 54.8256 58.9208 54.8256 60.3683V63ZM34.4366 37.8319L36.738 33.905H32.1352L34.4366 37.8319ZM32.1353 32.2051H36.7381V14.7095C36.7381 13.6689 35.8766 12.8201 34.8203 12.8201H34.0531C32.9968 12.8201 32.1353 13.6689 32.1353 14.7095V32.2051ZM52.0319 41.0385L55.6523 38.0329C56.065 37.6909 56.0564 37.0642 55.6432 36.7305L52.0319 33.7325C51.669 33.4318 51.1272 33.4778 50.8219 33.8354C50.5167 34.193 50.5634 34.7267 50.9264 35.0275L53.7669 37.3856L50.9264 39.7437C50.5635 40.0444 50.5167 40.5781 50.8219 40.9357C51.1272 41.2932 51.669 41.3392 52.0319 41.0385ZM45.4602 39.7437L42.6197 37.3856L45.4602 35.0275C45.8231 34.7268 45.8699 34.1931 45.5647 33.8354C45.2595 33.4779 44.7177 33.4318 44.3547 33.7325L40.7434 36.7305C40.3302 37.0642 40.3216 37.6909 40.7343 38.0329L44.3547 41.0385C44.7176 41.3392 45.2593 41.2932 45.5647 40.9356C45.8699 40.5781 45.8231 40.0444 45.4602 39.7437ZM47.9148 41.6892L50.1367 33.5201C50.2596 33.0671 49.9865 32.6019 49.5267 32.4809C49.0669 32.3598 48.5947 32.6289 48.4718 33.0818L46.2499 41.2509C46.127 41.7039 46.4001 42.1692 46.8599 42.2902C47.3196 42.4112 47.7919 42.1422 47.9148 41.6892ZM54.8935 18.834C54.7115 18.0806 54.4083 17.3608 53.9961 16.7014L54.6208 15.3157L52.963 13.6826L51.5564 14.298C50.8869 13.8919 50.1566 13.5932 49.3918 13.4139L48.8392 12H46.4948L45.9423 13.4141C45.1775 13.5934 44.4471 13.8921 43.7777 14.2982L42.3711 13.6828L40.7133 15.316L41.3379 16.7012C40.9255 17.3608 40.6223 18.0806 40.4403 18.8343L39.0052 19.3784V21.6881L40.4406 22.2323C40.6226 22.9857 40.9259 23.7053 41.338 24.3647L40.7133 25.7505L42.3711 27.3836L43.7772 26.7683C44.4468 27.1745 45.1775 27.4733 45.9425 27.6525L46.4948 29.0663H48.8393L49.3918 27.6522C50.1566 27.4729 50.8871 27.1742 51.5564 26.7682L52.963 27.3836L54.6208 25.7505L53.9962 24.3652C54.4085 23.7056 54.7117 22.9857 54.8939 22.2322L56.3288 21.688V19.3783L54.8935 18.834ZM47.667 24.561C45.4087 24.561 43.5784 22.7578 43.5784 20.533C43.5784 18.3083 45.4087 16.5051 47.667 16.5051C49.9253 16.5051 51.7557 18.3083 51.7557 20.533C51.7557 22.7579 49.9253 24.561 47.667 24.561ZM19.0088 35.2822H28.3436C28.8201 35.2822 29.2065 34.9017 29.2065 34.4322C29.2065 33.9628 28.8201 33.5822 28.3436 33.5822H19.0088C18.5323 33.5822 18.1459 33.9628 18.1459 34.4322C18.1459 34.9017 18.5323 35.2822 19.0088 35.2822ZM19.0088 31.8545H28.3436C28.8201 31.8545 29.2065 31.4739 29.2065 31.0045C29.2065 30.5351 28.8201 30.1545 28.3436 30.1545H19.0088C18.5323 30.1545 18.1459 30.5351 18.1459 31.0045C18.1459 31.4739 18.5323 31.8545 19.0088 31.8545ZM19.0701 24.9989H28.405C28.8815 24.9989 29.2678 24.6184 29.2678 24.1489C29.2678 23.6795 28.8815 23.2989 28.405 23.2989H19.0701C18.5936 23.2989 18.2073 23.6795 18.2073 24.1489C18.2073 24.6184 18.5936 24.9989 19.0701 24.9989ZM19.0394 28.4268H28.3744C28.8509 28.4268 29.2372 28.0462 29.2372 27.5768C29.2372 27.1074 28.8509 26.7268 28.3744 26.7268H19.0394C18.5629 26.7268 18.1766 27.1074 18.1766 27.5768C18.1766 28.0462 18.5629 28.4268 19.0394 28.4268ZM19.0701 42.1378H37.0335C37.51 42.1378 37.8963 41.7572 37.8963 41.2878C37.8963 40.8184 37.51 40.4378 37.0335 40.4378H19.0701C18.5936 40.4378 18.2073 40.8184 18.2073 41.2878C18.2073 41.7572 18.5936 42.1378 19.0701 42.1378ZM19.0394 38.71H28.3744C28.8509 38.71 29.2372 38.3294 29.2372 37.86C29.2372 37.3906 28.8509 37.01 28.3744 37.01H19.0394C18.5629 37.01 18.1766 37.3906 18.1766 37.86C18.1766 38.3294 18.5629 38.71 19.0394 38.71Z" fill="white"/>
</svg>
