<svg width="75" height="75" viewBox="0 0 75 75" fill="none" xmlns="http://www.w3.org/2000/svg">
<circle cx="37.5" cy="37.5" r="37.5" fill="#EC2020"/>
<path d="M58.5746 16.3849V15.4885H46.9447C54.4594 18.6261 59.7375 25.439 60.99 33.507C62.9581 33.8656 64.3 35.6585 63.9422 37.6307C63.5843 39.6028 61.7951 40.9475 59.827 40.5889C57.8589 40.2303 56.517 38.4375 56.8748 36.4653C57.0537 35.2103 58.0378 34.1345 59.2008 33.6863C57.7694 24.4529 50.5231 17.1917 41.3982 15.7574C40.772 17.64 38.7144 18.6261 36.9252 17.9985C35.8517 17.64 35.0465 16.8332 34.6887 15.7574C25.4743 17.1917 18.228 24.4529 16.7966 33.5967C18.6753 34.2242 19.6593 36.286 18.9437 38.1685C18.228 40.0511 16.2599 41.0371 14.3812 40.32C12.5025 39.6028 11.5185 37.6307 12.2341 35.7481C12.6814 34.4931 13.755 33.5967 15.0074 33.4174C16.2599 25.439 21.538 18.6261 29.0527 15.4885H17.4228V16.3849C17.4228 16.9228 17.065 17.2814 16.5282 17.2814H12.9498C12.4131 17.2814 12.0552 16.9228 12.0552 16.3849V12.7992C12.0552 12.2613 12.4131 11.9027 12.9498 11.9027H16.5282C17.065 11.9027 17.4228 12.2613 17.4228 12.7992V13.6956H34.5098C34.9571 11.8131 36.9252 10.6477 38.8038 11.0959C40.0563 11.4545 41.0403 12.4406 41.3982 13.6956H58.5746V12.7992C58.5746 12.2613 58.9324 11.9027 59.4692 11.9027H63.0476C63.5843 11.9027 63.9422 12.2613 63.9422 12.7992V16.3849C63.9422 16.9228 63.5843 17.2814 63.0476 17.2814H59.4692C58.9324 17.2814 58.5746 16.9228 58.5746 16.3849ZM49.0023 41.0371C49.0918 41.3061 49.1812 41.575 49.0023 41.7543L45.1555 51.1669C46.229 52.153 46.408 53.8563 45.4239 54.932C45.3344 55.0217 45.245 55.1113 45.1555 55.2009V60.3107C45.1555 61.8346 43.9925 63 42.4717 63H33.5257C32.0049 63 30.8419 61.8346 30.8419 60.3107V55.1113C29.7684 54.1252 29.6789 52.422 30.5735 51.3462C30.663 51.2566 30.7524 51.167 30.8419 51.0773L26.9951 41.7543C26.9056 41.4854 26.9056 41.2164 26.9951 41.0371L37.1041 21.674V36.286C35.2254 36.8239 34.0624 38.7064 34.5098 40.6786C35.0465 42.5611 36.9252 43.7265 38.8933 43.2782C40.8614 42.83 41.935 40.8578 41.4877 38.8857C41.1298 37.6307 40.1457 36.6446 38.8933 36.286V21.674L49.0023 41.0371ZM44.2609 53.1391C44.2609 52.6013 43.9031 52.2427 43.3663 52.2427H32.6311C32.0943 52.2427 31.7365 52.6013 31.7365 53.1391C31.7365 53.677 32.0943 54.0356 32.6311 54.0356H43.3663C43.9031 54.0356 44.2609 53.677 44.2609 53.1391ZM36.2095 39.6925C36.2095 40.6786 37.0146 41.4854 37.9987 41.4854C38.9828 41.4854 39.7879 40.6786 39.7879 39.6925C39.7879 38.7064 38.9828 37.8996 37.9987 37.8996C37.0146 37.8996 36.2095 38.7064 36.2095 39.6925Z" fill="white"/>
</svg>
