<svg width="75" height="75" viewBox="0 0 75 75" fill="none" xmlns="http://www.w3.org/2000/svg">
<circle cx="37.5" cy="37.5" r="37.5" fill="#EC2020"/>
<path d="M50.9977 60.5504C49.6859 59.9658 48.5285 59.0832 47.6178 57.9727C46.707 56.8622 46.0679 55.5546 45.7514 54.1537C45.7217 54.0264 45.6519 53.912 45.5523 53.8273C44.57 52.9776 43.7464 51.96 43.1202 50.822C42.873 50.3857 42.7545 49.8883 42.7786 49.3874C42.8027 48.8865 42.9683 48.4028 43.2563 47.9922C43.5443 47.5817 43.9428 47.2613 44.4056 47.0682C44.8684 46.8751 45.3764 46.8172 45.8708 46.9012C46.1911 46.9593 46.5171 46.9793 46.842 46.9609C46.9296 46.9557 47.015 46.9312 47.092 46.8892C47.1691 46.8473 47.2359 46.7888 47.2879 46.7181C48.5454 44.9978 50.3765 43.7837 52.4506 43.2948C52.5801 43.2637 52.6954 43.1898 52.7777 43.085C52.86 42.9803 52.9047 42.8509 52.9044 42.7177V38.363C52.9042 38.2189 52.8523 38.0797 52.758 37.9709C52.6637 37.862 52.5334 37.7906 52.3909 37.7699C52.0446 37.7181 51.7381 37.6624 51.4555 37.5947C50.2727 37.3089 49.1509 36.8127 48.1437 36.1299C48.034 36.0514 47.8999 36.0147 47.7655 36.0264C46.3042 36.1108 44.8397 35.9301 43.4427 35.493C41.2458 34.925 40.757 31.7696 42.6784 30.5612C43.0474 30.3115 43.382 30.0144 43.6735 29.6775C43.7306 29.6131 43.7727 29.5369 43.7967 29.4543C43.8208 29.3717 43.8263 29.2848 43.8129 29.1998C43.5432 27.3118 43.8108 25.386 44.5851 23.643C45.2735 22.0757 46.3513 20.7105 47.7162 19.6772C49.0811 18.644 50.6876 17.9771 52.3829 17.7399C52.5299 17.7183 52.6635 17.6427 52.7577 17.5279C52.8519 17.4131 52.8999 17.2673 52.8924 17.1189C52.83 15.7394 52.2376 14.4371 51.2388 13.4835C50.2399 12.5299 48.9116 11.9985 47.5307 12H27.23C25.8055 12.0021 24.4399 12.5689 23.4326 13.5762C22.4253 14.5836 21.8584 15.9492 21.8563 17.3737V26.2503C21.8572 26.3337 21.8754 26.4161 21.9098 26.4922C21.9443 26.5683 21.9941 26.6364 22.0563 26.6921C22.1184 26.7479 22.1914 26.7902 22.2708 26.8162C22.3501 26.8422 22.434 26.8515 22.5171 26.8434C22.9733 26.7949 23.4316 26.7696 23.8904 26.7677C26.4076 26.7701 28.8709 27.4968 30.9863 28.8612C33.1017 30.2256 34.7797 32.1699 35.82 34.4621C35.8541 34.5388 35.904 34.6075 35.9664 34.6638C36.0288 34.72 36.1023 34.7625 36.1822 34.7885C36.9493 35.0399 37.7513 35.1689 38.5586 35.1706C39.1456 35.1733 39.72 35.342 40.2153 35.6571C40.7107 35.9721 41.1069 36.4208 41.3582 36.9514C41.6096 37.4819 41.7058 38.0727 41.6358 38.6556C41.5659 39.2385 41.3326 39.7898 40.9628 40.2458C39.7213 41.8218 38.1839 43.1402 36.437 44.1268C36.3093 44.1935 36.2113 44.3057 36.1623 44.4412C35.229 46.9467 33.5506 49.1063 31.3531 50.6292C29.1555 52.1521 26.5442 52.9654 23.8705 52.9595C23.4183 52.956 22.9666 52.9294 22.5171 52.8799C22.434 52.8719 22.3502 52.8813 22.2709 52.9073C22.1916 52.9334 22.1186 52.9757 22.0565 53.0314C21.9944 53.0872 21.9445 53.1552 21.9101 53.2312C21.8756 53.3072 21.8573 53.3896 21.8563 53.473V57.5769C21.8584 59.0015 22.4253 60.3671 23.4326 61.3744C24.4399 62.3817 25.8055 62.9485 27.23 62.9506H47.5307C48.8746 62.9509 50.1693 62.4449 51.1569 61.5336C51.2294 61.4667 51.2843 61.3829 51.3165 61.2896C51.3487 61.1964 51.3573 61.0966 51.3415 60.9992C51.3258 60.9018 51.2861 60.8098 51.2261 60.7315C51.1661 60.6532 51.0876 60.591 50.9977 60.5504ZM33.6387 16.3786C33.1818 16.3643 32.7373 16.2265 32.3525 15.9797C31.9677 15.733 31.657 15.3867 31.4534 14.9774L30.498 13.1942H44.2666L43.3073 14.9774C43.1037 15.3867 42.7929 15.733 42.4082 15.9797C42.0234 16.2265 41.5789 16.3643 41.122 16.3786H33.6387ZM41.5599 57.776H33.2008C33.0424 57.776 32.8906 57.7131 32.7786 57.6011C32.6666 57.4891 32.6037 57.3372 32.6037 57.1789C32.6037 57.0205 32.6666 56.8687 32.7786 56.7567C32.8906 56.6447 33.0424 56.5818 33.2008 56.5818H41.5599C41.7182 56.5818 41.8701 56.6447 41.9821 56.7567C42.0941 56.8687 42.157 57.0205 42.157 57.1789C42.157 57.3372 42.0941 57.4891 41.9821 57.6011C41.8701 57.7131 41.7182 57.776 41.5599 57.776Z" fill="white"/>
<path d="M53.8928 52.9993H55.4699L55.8966 51.4071H54.3195L53.8928 52.9993Z" fill="white"/>
<path d="M51.6379 44.7995C50.0798 45.4254 48.7648 46.5364 47.8874 47.968C47.8742 47.9888 47.8567 48.0067 47.8361 48.0204C47.8156 48.0341 47.7924 48.0434 47.768 48.0476C47.0737 48.1884 46.3594 48.1993 45.6611 48.0798C45.3904 48.0339 45.1122 48.0656 44.8588 48.1715C44.6055 48.2774 44.3874 48.4529 44.2298 48.6778C44.0723 48.9027 43.9818 49.1677 43.9689 49.442C43.956 49.7163 44.0212 49.9886 44.1569 50.2273C44.794 51.4066 45.6762 52.4358 46.7442 53.2457C46.7628 53.2586 46.7786 53.2751 46.7908 53.2942C46.8029 53.3132 46.8112 53.3345 46.8151 53.3568C47.3751 57.1956 50.9886 60.2331 54.7606 60.1917C56.2047 60.1753 57.617 59.7661 58.8462 59.0079C60.0753 58.2498 61.0749 57.1713 61.7377 55.8882C62.4005 54.6051 62.7014 53.1657 62.6083 51.7246C62.5151 50.2834 62.0314 48.8948 61.209 47.7077C60.1767 46.2131 58.6687 45.1121 56.9307 44.584C55.1927 44.0559 53.3272 44.1319 51.6379 44.7995ZM58.2782 51.4071H57.133L56.7066 52.9994H57.8801C58.0385 52.9994 58.1903 53.0623 58.3023 53.1742C58.4143 53.2862 58.4772 53.4381 58.4772 53.5964C58.4772 53.7548 58.4143 53.9067 58.3023 54.0186C58.1903 54.1306 58.0385 54.1935 57.8801 54.1935H56.3866L56.0049 55.6173C55.9846 55.6931 55.9495 55.7642 55.9018 55.8264C55.854 55.8887 55.7944 55.9409 55.7265 55.9802C55.6585 56.0194 55.5835 56.0449 55.5057 56.0551C55.4279 56.0654 55.3489 56.0602 55.2731 56.0399C55.1973 56.0196 55.1262 55.9845 55.064 55.9368C55.0017 55.889 54.9495 55.8294 54.9102 55.7615C54.871 55.6935 54.8455 55.6185 54.8353 55.5407C54.825 55.4629 54.8302 55.3838 54.8505 55.3081L55.1491 54.1935H53.572L53.1859 55.6349C53.1656 55.7106 53.1305 55.7817 53.0828 55.844C53.035 55.9062 52.9754 55.9584 52.9075 55.9977C52.8395 56.0369 52.7645 56.0624 52.6867 56.0726C52.6089 56.0829 52.5299 56.0777 52.4541 56.0574C52.3783 56.0371 52.3072 56.002 52.245 55.9543C52.1827 55.9065 52.1305 55.8469 52.0912 55.779C52.052 55.711 52.0265 55.636 52.0163 55.5582C52.006 55.4804 52.0112 55.4014 52.0315 55.3256L52.3348 54.1935H51.5113C51.3529 54.1935 51.201 54.1306 51.0891 54.0186C50.9771 53.9067 50.9142 53.7548 50.9142 53.5964C50.9142 53.4381 50.9771 53.2862 51.0891 53.1742C51.201 53.0623 51.3529 52.9994 51.5113 52.9994H52.6565L53.0828 51.4071H51.9093C51.751 51.4071 51.5991 51.3442 51.4871 51.2323C51.3752 51.1203 51.3122 50.9684 51.3122 50.8101C51.3122 50.6517 51.3752 50.4998 51.4871 50.3879C51.5991 50.2759 51.751 50.213 51.9093 50.213H53.4028L53.7845 48.7892C53.8256 48.6361 53.9257 48.5056 54.0629 48.4263C54.2002 48.3471 54.3633 48.3256 54.5164 48.3666C54.6694 48.4076 54.8 48.5078 54.8792 48.645C54.9584 48.7823 54.9799 48.9454 54.9389 49.0984L54.6404 50.213H56.2174L56.6035 48.7716C56.6239 48.6958 56.6589 48.6248 56.7067 48.5625C56.7544 48.5003 56.814 48.448 56.882 48.4088C56.9499 48.3696 57.0249 48.3441 57.1027 48.3339C57.1805 48.3236 57.2596 48.3288 57.3354 48.3491C57.4112 48.3694 57.4822 48.4045 57.5445 48.4522C57.6067 48.5 57.659 48.5596 57.6982 48.6275C57.7374 48.6955 57.7629 48.7705 57.7731 48.8483C57.7834 48.9261 57.7782 49.0051 57.7579 49.0809L57.453 50.213H58.2782C58.4365 50.213 58.5884 50.2759 58.7004 50.3879C58.8123 50.4998 58.8752 50.6517 58.8752 50.8101C58.8752 50.9684 58.8123 51.1203 58.7004 51.2323C58.5884 51.3442 58.4365 51.4071 58.2782 51.4071Z" fill="white"/>
<path d="M45.6789 24.1255C44.9089 25.849 44.7068 27.7727 45.1017 29.6186C45.1098 29.6579 45.1097 29.6984 45.1013 29.7377C45.093 29.7769 45.0766 29.814 45.0532 29.8467C44.5962 30.5154 44.0191 31.0934 43.3511 31.5515C43.1079 31.7191 42.9169 31.9518 42.7999 32.2229C42.6829 32.4941 42.6446 32.7927 42.6895 33.0846C42.7345 33.3765 42.8607 33.6498 43.0538 33.8732C43.2469 34.0966 43.4991 34.2611 43.7814 34.3478C45.2038 34.8085 46.709 34.956 48.1938 34.7801C48.2275 34.7751 48.2619 34.7769 48.295 34.7852C48.328 34.7935 48.3591 34.8083 48.3865 34.8287C49.9578 36.0255 51.8761 36.678 53.8513 36.6876C60.3941 36.7174 64.791 29.5585 61.7674 23.684C58.3708 17.0875 48.6894 17.3108 45.6789 24.1255ZM54.446 31.7585C54.2794 31.853 54.0911 31.9027 53.8995 31.9027C53.7079 31.9027 53.5196 31.853 53.353 31.7585C51.0176 30.431 49.6909 28.7827 49.7474 26.6933C49.746 26.3856 49.8052 26.0807 49.9216 25.7959C50.0381 25.5111 50.2095 25.252 50.426 25.0334C50.6426 24.8149 50.9001 24.6411 51.1838 24.5221C51.4675 24.403 51.7719 24.341 52.0796 24.3396C52.4299 24.3394 52.7758 24.4188 53.091 24.5716C53.4062 24.7245 53.6827 24.9469 53.8995 25.2221C54.1163 24.9469 54.3927 24.7245 54.708 24.5716C55.0232 24.4188 55.369 24.3394 55.7194 24.3396C56.0271 24.341 56.3314 24.403 56.6152 24.5221C56.8989 24.6411 57.1564 24.8149 57.3729 25.0334C57.5895 25.252 57.7609 25.5111 57.8773 25.7959C57.9938 26.0807 58.053 26.3856 58.0516 26.6933C58.1101 28.7827 56.7814 30.4298 54.446 31.7585Z" fill="white"/>
<path d="M35.1911 43.6021C35.2153 43.5314 35.2534 43.4662 35.303 43.4102C35.3526 43.3542 35.4128 43.3087 35.4801 43.2761C37.2556 42.3566 38.8111 41.0637 40.0398 39.4863C40.2658 39.2053 40.408 38.8663 40.4502 38.5082C40.4924 38.1501 40.4328 37.7873 40.2783 37.4615C40.1238 37.1357 39.8805 36.86 39.5765 36.6661C39.2725 36.4722 38.92 36.3679 38.5594 36.3651C37.4334 36.3592 36.3183 36.1444 35.2707 35.7314C35.1922 35.7019 35.1206 35.6566 35.0603 35.5983C35 35.5401 34.9523 35.4701 34.92 35.3927C33.9748 33.059 32.3126 31.0859 30.1732 29.7583C21.7588 24.4841 10.9676 31.485 12.0794 41.3046C12.7366 47.1082 18.1055 51.9023 23.8944 51.7813C28.7785 51.888 33.7067 48.3943 35.1911 43.6021ZM21.0602 44.9272C20.8791 45.0333 20.6731 45.0892 20.4632 45.0892H18.871C18.5543 45.0892 18.2505 44.9634 18.0266 44.7395C17.8026 44.5155 17.6768 44.2118 17.6768 43.8951V37.9243C17.6768 37.6076 17.8026 37.3039 18.0266 37.0799C18.2505 36.856 18.5543 36.7301 18.871 36.7301H20.4632C20.6727 36.7298 20.8787 36.7847 21.0602 36.8894V44.9272ZM22.2544 44.3922V37.2408C23.4239 36.1558 24.1762 33.9466 24.6773 32.9053C25.5594 31.071 27.3363 33.5314 26.9021 34.8557C26.752 35.3143 26.4339 36.7266 26.4339 36.7266C27.3841 36.7266 28.2953 37.104 28.9671 37.7758C29.639 38.4477 30.0164 39.3589 30.0164 40.309V41.5032C30.0164 42.4533 29.639 43.3645 28.9671 44.0364C28.2953 44.7082 27.3841 45.0857 26.4339 45.0857H24.2112C23.8405 45.0856 23.4748 44.9992 23.1433 44.8333L22.2544 44.3922Z" fill="white"/>
</svg>
