<svg width="75" height="75" viewBox="0 0 75 75" fill="none" xmlns="http://www.w3.org/2000/svg">
<circle cx="37.5" cy="37.5" r="37.5" fill="#EC2020"/>
<path fill-rule="evenodd" clip-rule="evenodd" d="M61 24.5155C61 21.4699 58.5301 19 55.4845 19C46.9458 19 28.0542 19 19.5155 19C16.4699 19 14 21.4699 14 24.5155V51.0845C14 54.1301 16.4699 56.6 19.5155 56.6H55.4845C58.5301 56.6 61 54.1301 61 51.0845V24.5155ZM40.5209 37.397L45.6239 42.5L40.5209 47.603C40.0627 48.0624 40.0627 48.8062 40.5209 49.2656C40.9792 49.7239 41.7241 49.7239 42.1824 49.2656L48.1173 43.3307C48.5755 42.8725 48.5755 42.1275 48.1173 41.6693L42.1824 35.7344C41.7241 35.2761 40.9792 35.2761 40.5209 35.7344C40.0627 36.1938 40.0627 36.9376 40.5209 37.397ZM32.8176 35.7344L26.8827 41.6693C26.4244 42.1275 26.4244 42.8725 26.8827 43.3307L32.8176 49.2656C33.2759 49.7239 34.0208 49.7239 34.4791 49.2656C34.9373 48.8062 34.9373 48.0624 34.4791 47.603L29.376 42.5L34.4791 37.397C34.9373 36.9376 34.9373 36.1938 34.4791 35.7344C34.0208 35.2761 33.2759 35.2761 32.8176 35.7344ZM58.65 27.225H16.35V24.5155C16.35 22.7671 17.7671 21.35 19.5155 21.35H55.4845C57.2329 21.35 58.65 22.7671 58.65 24.5155V27.225Z" fill="white"/>
</svg>
